<?xml version="1.0" encoding="UTF-8"?>
<svg width="145px" height="25px" viewBox="0 0 145 25" version="1.1" xmlns="http://www.w3.org/2000/svg" xmlns:xlink="http://www.w3.org/1999/xlink">
    <!-- Generator: sketchtool 57.1 (101010) - https://sketch.com -->
    <title>D31AB1F3-EFEA-49B7-8FCB-D5C16F76AEA8</title>
    <desc>Created with sketchtool.</desc>
    <g id="Page-1" stroke="none" stroke-width="1" fill="none" fill-rule="evenodd">
        <g id="(XL)-&gt;1200---Desktop" transform="translate(-987.000000, -427.000000)" fill-rule="nonzero">
            <g id="Clearly-Rated-Widget/XL" transform="translate(308.000000, 426.000000)">
                <g id="logo-clearlyrated" transform="translate(679.000000, 1.000000)">
                    <g id="Group" transform="translate(21.551724, 1.724138)" fill="#7F7F7F">
                        <g>
                            <path d="M8.82206897,8.06034483 C8.34868966,7.62931034 7.87531034,7.28448276 7.35889655,7.06896552 C6.88551724,6.85344828 6.32606897,6.72413793 5.63751724,6.72413793 C5.12110345,6.72413793 4.64772414,6.85344828 4.17434483,7.06896552 C3.744,7.28448276 3.35668966,7.62931034 3.01241379,8.06034483 C2.66813793,8.49137931 2.40993103,9.05172414 2.2377931,9.69827586 C2.06565517,10.3448276 1.97958621,11.0775862 1.97958621,11.8965517 C1.97958621,13.5344828 2.32386207,14.8275862 2.96937931,15.8189655 C3.61489655,16.7672414 4.51862069,17.2844828 5.72358621,17.2844828 C6.36910345,17.2844828 6.92855172,17.1551724 7.40193103,16.8965517 C7.87531034,16.637931 8.34868966,16.2931034 8.77903448,15.862069 L9.89793103,17.0689655 C9.33848276,17.6293103 8.736,18.0603448 8.04744828,18.4051724 C7.35889655,18.7068966 6.58427586,18.8793103 5.63751724,18.8793103 C4.90593103,18.8793103 4.21737931,18.75 3.57186207,18.4482759 C2.88331034,18.1896552 2.32386207,17.7586207 1.80744828,17.1982759 C1.29103448,16.637931 0.860689655,15.9482759 0.559448276,15.0862069 C0.258206897,14.2241379 0.0860689655,13.2327586 0.0860689655,12.0689655 C0.0860689655,10.862069 0.258206897,9.78448276 0.602482759,8.92241379 C0.946758621,8.06034483 1.37710345,7.32758621 1.89351724,6.76724138 C2.40993103,6.20689655 3.05544828,5.77586207 3.70096552,5.51724138 C4.38951724,5.25862069 5.07806897,5.12931034 5.76662069,5.12931034 C6.67034483,5.12931034 7.44496552,5.25862069 8.13351724,5.56034483 C8.82206897,5.86206897 9.42455172,6.20689655 9.94096552,6.68103448 L8.82206897,8.06034483 Z" id="Path"/>
                            <polygon id="Path" points="11.8775172 18.6206897 11.8775172 1.3362069 13.7710345 0.25862069 13.7710345 18.6206897"/>
                            <path d="M26.5522759,12.1982759 C26.5522759,12.3706897 26.5092414,12.5 26.5092414,12.6724138 L17.7302069,12.6724138 C17.8162759,14.0948276 18.1605517,15.2586207 18.806069,16.0775862 C19.4515862,16.8965517 20.3122759,17.3275862 21.3881379,17.3275862 C22.1627586,17.3275862 22.8082759,17.1982759 23.3246897,16.9827586 C23.8411034,16.7672414 24.4005517,16.4655172 25.0030345,16.0344828 L25.8637241,17.4137931 C25.4764138,17.6724138 25.0891034,17.887931 24.7448276,18.0603448 C24.4005517,18.2327586 24.0132414,18.4051724 23.6689655,18.5344828 C23.2816552,18.6637931 22.8943448,18.75 22.5070345,18.8362069 C22.1197241,18.9224138 21.6463448,18.9224138 21.129931,18.9224138 C20.5274483,18.9224138 19.9249655,18.7931034 19.2794483,18.5775862 C18.633931,18.362069 18.0744828,17.9741379 17.558069,17.4137931 C17.0416552,16.8534483 16.6113103,16.1637931 16.2670345,15.2586207 C15.9227586,14.3534483 15.7506207,13.2758621 15.7506207,11.9827586 C15.7506207,10.9051724 15.8797241,9.95689655 16.1809655,9.13793103 C16.4391724,8.31896552 16.8264828,7.5862069 17.3428966,6.98275862 C17.8162759,6.37931034 18.4187586,5.94827586 19.0642759,5.60344828 C19.7097931,5.30172414 20.4413793,5.12931034 21.216,5.12931034 C22.0766897,5.12931034 22.8082759,5.30172414 23.4968276,5.60344828 C24.1423448,5.90517241 24.7017931,6.37931034 25.1751724,6.93965517 C25.6055172,7.5 25.9497931,8.18965517 26.208,9.00862069 C26.4231724,9.82758621 26.5522759,10.6896552 26.5522759,11.5948276 C26.5522759,11.8534483 26.5522759,12.0689655 26.5522759,12.1982759 Z M23.8411034,7.93103448 C23.2816552,7.11206897 22.4209655,6.72413793 21.2590345,6.72413793 C20.2692414,6.72413793 19.4515862,7.06896552 18.8491034,7.80172414 C18.2466207,8.53448276 17.8593103,9.61206897 17.7302069,11.1206897 L24.8308966,11.1206897 C24.7448276,9.82758621 24.4435862,8.75 23.8411034,7.93103448 Z" id="Shape"/>
                            <path d="M35.9768276,18.6206897 L35.9768276,17.0258621 C35.5034483,17.5431034 34.944,17.9741379 34.2984828,18.362069 C33.6529655,18.75 32.8353103,18.9224138 31.8885517,18.9224138 C31.3721379,18.9224138 30.8557241,18.8362069 30.3393103,18.7068966 C29.8228966,18.5775862 29.3925517,18.3189655 28.9622069,18.0172414 C28.5748966,17.6724138 28.2306207,17.2413793 28.0154483,16.7241379 C27.7572414,16.2068966 27.6711724,15.5172414 27.6711724,14.6982759 C27.6711724,13.9655172 27.8002759,13.3189655 28.1015172,12.8017241 C28.4027586,12.2844828 28.7470345,11.8103448 29.2204138,11.4655172 C29.6937931,11.1206897 30.2102069,10.862069 30.8126897,10.6896552 C31.4151724,10.5172414 32.0606897,10.4310345 32.7062069,10.4310345 C33.3947586,10.4310345 33.9972414,10.5172414 34.5566897,10.6465517 C35.1161379,10.7758621 35.5895172,10.9482759 35.9768276,11.2068966 L35.9768276,9.65517241 C35.9768276,7.71551724 35.030069,6.76724138 33.0935172,6.76724138 C32.4049655,6.76724138 31.7594483,6.85344828 31.1569655,7.02586207 C30.5975172,7.19827586 30.038069,7.45689655 29.4786207,7.75862069 L28.8331034,6.20689655 C29.4355862,5.90517241 30.0811034,5.60344828 30.8557241,5.43103448 C31.6303448,5.21551724 32.4049655,5.12931034 33.2656552,5.12931034 C34.6857931,5.12931034 35.8046897,5.47413793 36.6653793,6.12068966 C37.4830345,6.76724138 37.9133793,7.88793103 37.9133793,9.39655172 L37.9133793,18.6206897 L35.9768276,18.6206897 L35.9768276,18.6206897 Z M35.9768276,12.7155172 C35.5464828,12.5 35.0731034,12.2844828 34.5566897,12.1551724 C34.0402759,12.0258621 33.3947586,11.9396552 32.5771034,11.9396552 C31.5873103,11.9396552 30.8557241,12.1551724 30.2962759,12.5862069 C29.7368276,13.0172414 29.4786207,13.6637931 29.4786207,14.5258621 C29.4786207,15.5172414 29.7368276,16.25 30.2102069,16.6810345 C30.6835862,17.112069 31.3721379,17.3275862 32.1467586,17.3275862 C33.0074483,17.3275862 33.7390345,17.1551724 34.3845517,16.7672414 C35.030069,16.3793103 35.5464828,15.9051724 35.9337931,15.3448276 L35.9337931,12.7155172 L35.9768276,12.7155172 Z" id="Shape"/>
                            <path d="M47.2088276,7.37068966 C46.9506207,7.24137931 46.6493793,7.11206897 46.3481379,7.02586207 C46.0468966,6.93965517 45.6595862,6.89655172 45.2292414,6.89655172 C44.3255172,6.89655172 43.593931,7.24137931 43.1205517,7.97413793 C42.6471724,8.6637931 42.3889655,9.65517241 42.3889655,10.9051724 L42.3889655,18.6637931 L40.4524138,18.6637931 L40.4524138,5.38793103 L42.345931,5.38793103 L42.345931,7.02586207 C42.6471724,6.50862069 43.0775172,6.03448276 43.68,5.64655172 C44.2824828,5.25862069 44.928,5.0862069 45.6165517,5.0862069 C46.089931,5.0862069 46.5202759,5.12931034 46.8215172,5.17241379 C47.1657931,5.21551724 47.424,5.30172414 47.6822069,5.43103448 L47.2088276,7.37068966 Z" id="Path"/>
                            <polygon id="Path" points="49.3175172 18.6206897 49.3175172 1.3362069 51.2110345 0.25862069 51.2110345 18.6206897"/>
                            <polygon id="Path" points="57.6662069 23.2758621 55.7726897 23.2758621 57.5801379 18.4482759 52.8893793 5.38793103 54.8689655 5.38793103 58.0965517 15 58.569931 16.3793103 59.0433103 15.0431034 62.2708966 5.43103448 64.2504828 5.43103448"/>
                            <path d="M73.8471724,8.14655172 C73.545931,8.01724138 73.2877241,7.88793103 72.9864828,7.80172414 C72.6852414,7.71551724 72.297931,7.67241379 71.8675862,7.67241379 C71.049931,7.67241379 70.4044138,7.97413793 69.974069,8.53448276 C69.5006897,9.09482759 69.2855172,9.95689655 69.2855172,11.0775862 L69.2855172,18.6206897 L66.6604138,18.6206897 L66.6604138,5.38793103 L69.2855172,5.38793103 L69.2855172,6.63793103 C69.5867586,6.20689655 70.0171034,5.81896552 70.5335172,5.56034483 C71.049931,5.25862069 71.6524138,5.12931034 72.297931,5.12931034 C72.8143448,5.12931034 73.2877241,5.17241379 73.632,5.25862069 C73.9762759,5.34482759 74.2775172,5.47413793 74.5357241,5.68965517 L73.8471724,8.14655172 Z" id="Path"/>
                            <path d="M82.3249655,18.6206897 L82.3249655,17.3275862 C81.8515862,17.8017241 81.3351724,18.1465517 80.7326897,18.4482759 C80.1302069,18.75 79.4416552,18.9224138 78.710069,18.9224138 C78.1936552,18.9224138 77.6342069,18.8362069 77.0747586,18.6637931 C76.5153103,18.4913793 76.041931,18.2327586 75.6115862,17.887931 C75.1812414,17.5431034 74.8369655,17.0689655 74.5357241,16.5086207 C74.2775172,15.9482759 74.1053793,15.2586207 74.1053793,14.4396552 C74.1053793,13.7068966 74.2344828,13.0603448 74.4926897,12.5431034 C74.7508966,12.0258621 75.1382069,11.5517241 75.6115862,11.2068966 C76.0849655,10.862069 76.6444138,10.6034483 77.289931,10.4310345 C77.9354483,10.2586207 78.624,10.1724138 79.3555862,10.1724138 C80.5605517,10.1724138 81.5503448,10.3448276 82.281931,10.6896552 L82.281931,9.69827586 C82.281931,8.96551724 82.0667586,8.40517241 81.6364138,8.01724138 C81.206069,7.62931034 80.6035862,7.45689655 79.785931,7.45689655 C79.0973793,7.45689655 78.4948966,7.54310345 77.9354483,7.67241379 C77.376,7.80172414 76.8595862,8.01724138 76.3431724,8.31896552 L75.3533793,6.3362069 C75.9988966,5.94827586 76.6874483,5.64655172 77.376,5.47413793 C78.1075862,5.25862069 78.9252414,5.17241379 79.872,5.17241379 C81.3351724,5.17241379 82.5401379,5.51724138 83.4438621,6.25 C84.3475862,6.98275862 84.8209655,8.10344828 84.8209655,9.56896552 L84.8209655,18.6206897 L82.3249655,18.6206897 Z M82.3249655,12.9741379 C81.9806897,12.8017241 81.5503448,12.6293103 81.0769655,12.5431034 C80.6035862,12.4568966 80.0011034,12.4137931 79.3125517,12.4137931 C78.4948966,12.4137931 77.8063448,12.5862069 77.3329655,12.9310345 C76.8595862,13.2758621 76.6013793,13.75 76.6013793,14.3534483 C76.6013793,15 76.8165517,15.5172414 77.2468966,15.9482759 C77.6772414,16.3362069 78.3227586,16.5517241 79.1404138,16.5517241 C79.8289655,16.5517241 80.4744828,16.3793103 81.033931,16.0344828 C81.5933793,15.6896552 82.0237241,15.3017241 82.3249655,14.8706897 L82.3249655,12.9741379 L82.3249655,12.9741379 Z" id="Shape"/>
                            <path d="M93.3848276,18.2758621 C93.0835862,18.4482759 92.6962759,18.6206897 92.265931,18.7068966 C91.8355862,18.8362069 91.3622069,18.8793103 90.8457931,18.8793103 C89.942069,18.8793103 89.2104828,18.5775862 88.6510345,18.0172414 C88.1346207,17.4568966 87.8764138,16.5517241 87.8764138,15.387931 L87.8764138,7.75862069 L85.9828966,7.75862069 L85.9828966,5.38793103 L87.8764138,5.38793103 L87.8764138,1.59482759 L90.4154483,0.215517241 L90.4154483,5.34482759 L93.686069,5.34482759 L93.686069,7.75862069 L90.4154483,7.75862069 L90.4154483,14.9137931 C90.4154483,15.5172414 90.5015172,15.9482759 90.7166897,16.1637931 C90.9318621,16.3793103 91.2761379,16.5086207 91.7495172,16.5086207 C92.0937931,16.5086207 92.438069,16.4655172 92.7823448,16.3362069 C93.1266207,16.2068966 93.4278621,16.1206897 93.6430345,15.9913793 L93.3848276,18.2758621 Z" id="Path"/>
                            <path d="M105.907862,12.4137931 C105.907862,12.6293103 105.864828,12.8017241 105.864828,12.9310345 L97.1288276,12.9310345 C97.2148966,13.5775862 97.344,14.0948276 97.5161379,14.5689655 C97.7313103,15.0431034 97.9895172,15.387931 98.2907586,15.6896552 C98.592,15.9913793 98.9362759,16.2068966 99.2805517,16.3362069 C99.6678621,16.4655172 100.055172,16.5517241 100.442483,16.5517241 C101.001931,16.5517241 101.518345,16.4655172 101.94869,16.2931034 C102.422069,16.1206897 102.852414,15.862069 103.282759,15.5172414 L104.832,17.1982759 C104.229517,17.7586207 103.584,18.1896552 102.852414,18.4913793 C102.120828,18.7931034 101.260138,18.9655172 100.270345,18.9655172 C99.4957241,18.9655172 98.7641379,18.8362069 98.0755862,18.4913793 C97.3870345,18.1896552 96.7845517,17.7586207 96.2681379,17.1551724 C95.7517241,16.5517241 95.3213793,15.862069 95.0201379,15 C94.7188966,14.137931 94.5467586,13.1896552 94.5467586,12.0689655 C94.5467586,10.9482759 94.6758621,9.95689655 94.9771034,9.09482759 C95.2783448,8.23275862 95.6656552,7.5 96.1390345,6.93965517 C96.6554483,6.37931034 97.257931,5.90517241 97.9464828,5.60344828 C98.678069,5.30172414 99.4526897,5.12931034 100.313379,5.12931034 C101.260138,5.12931034 102.077793,5.30172414 102.766345,5.64655172 C103.454897,5.99137931 104.057379,6.46551724 104.487724,7.06896552 C104.961103,7.67241379 105.305379,8.36206897 105.520552,9.18103448 C105.735724,10 105.864828,10.8189655 105.864828,11.7241379 C105.907862,11.9827586 105.907862,12.1982759 105.907862,12.4137931 Z M103.067586,9.52586207 C102.938483,9.13793103 102.766345,8.75 102.508138,8.44827586 C102.249931,8.14655172 101.94869,7.88793103 101.561379,7.71551724 C101.174069,7.54310345 100.743724,7.45689655 100.184276,7.45689655 C99.3235862,7.45689655 98.6350345,7.75862069 98.1186207,8.31896552 C97.6022069,8.87931034 97.3009655,9.69827586 97.1718621,10.7758621 L103.325793,10.7758621 C103.282759,10.3448276 103.19669,9.9137931 103.067586,9.52586207 Z" id="Shape"/>
                            <path d="M115.590621,18.6206897 L115.590621,17.3275862 C115.117241,17.7586207 114.600828,18.1465517 114.041379,18.4482759 C113.481931,18.75 112.879448,18.8793103 112.147862,18.8793103 C111.416276,18.8793103 110.770759,18.75 110.168276,18.4913793 C109.565793,18.2327586 109.006345,17.8017241 108.532966,17.2413793 C108.059586,16.6810345 107.71531,15.9482759 107.457103,15.0431034 C107.198897,14.137931 107.069793,13.0603448 107.069793,11.8103448 C107.069793,10.6896552 107.198897,9.69827586 107.500138,8.87931034 C107.801379,8.06034483 108.145655,7.32758621 108.662069,6.81034483 C109.135448,6.25 109.694897,5.86206897 110.340414,5.56034483 C110.985931,5.30172414 111.631448,5.17241379 112.32,5.17241379 C113.008552,5.17241379 113.611034,5.34482759 114.213517,5.64655172 C114.816,5.94827586 115.289379,6.29310345 115.633655,6.72413793 L115.633655,1.59482759 L118.215724,0.25862069 L118.215724,18.6206897 L115.590621,18.6206897 Z M115.590621,9.26724138 C115.461517,9.05172414 115.246345,8.87931034 115.031172,8.6637931 C114.816,8.44827586 114.557793,8.27586207 114.299586,8.10344828 C114.041379,7.93103448 113.740138,7.80172414 113.438897,7.67241379 C113.137655,7.54310345 112.836414,7.5 112.492138,7.5 C111.545379,7.5 110.856828,7.84482759 110.383448,8.53448276 C109.910069,9.22413793 109.651862,10.2586207 109.651862,11.6810345 C109.651862,13.362069 109.910069,14.5689655 110.426483,15.3017241 C110.942897,16.0344828 111.674483,16.4224138 112.621241,16.4224138 C113.223724,16.4224138 113.826207,16.25 114.342621,15.9051724 C114.859034,15.5603448 115.289379,15.1724138 115.633655,14.7413793 L115.633655,9.26724138 L115.590621,9.26724138 Z" id="Shape"/>
                        </g>
                        <path d="M121.093879,6.12068966 L121.093879,7.71551724 L120.798017,7.71551724 L120.798017,6.12068966 L120.317241,6.12068966 L120.317241,5.81896552 L121.537672,5.81896552 L121.537672,6.12068966 L121.093879,6.12068966 Z M123.016983,7.71551724 L123.016983,6.72413793 L123.016983,6.50862069 C123.016983,6.55172414 122.98,6.55172414 122.98,6.59482759 C122.98,6.63793103 122.943017,6.63793103 122.943017,6.68103448 L122.536207,7.75862069 L122.129397,6.68103448 C122.129397,6.63793103 122.092414,6.63793103 122.092414,6.59482759 C122.092414,6.55172414 122.055431,6.55172414 122.055431,6.50862069 C122.055431,6.55172414 122.055431,6.59482759 122.055431,6.63793103 C122.055431,6.68103448 122.055431,6.72413793 122.055431,6.72413793 L122.055431,7.71551724 L121.796552,7.71551724 L121.796552,5.81896552 L122.092414,5.81896552 L122.462241,6.81034483 C122.462241,6.85344828 122.499224,6.89655172 122.499224,6.93965517 C122.499224,6.98275862 122.536207,7.02586207 122.536207,7.06896552 C122.536207,7.02586207 122.57319,6.98275862 122.57319,6.93965517 C122.57319,6.89655172 122.610172,6.85344828 122.610172,6.81034483 L122.98,5.81896552 L123.275862,5.81896552 L123.275862,7.71551724 L123.016983,7.71551724 Z" id="Shape"/>
                    </g>
                    <g id="Group">
                        <path d="M10.1036435,6.28197329 C10.3338024,5.02378121 10.8861839,3.81052457 11.6226924,3.09155767 C10.0115799,4.34974974 8.90681706,4.93391035 7.15760918,6.77626303 C6.65125954,7.31548821 6.23697346,8.03445511 5.91475096,8.8882283 C6.60522775,8.48380942 7.29570454,8.03445511 7.98618134,7.58510079 C8.72268991,7.13574648 9.41316671,6.68639217 10.1036435,6.28197329 Z" id="Path" fill="#7F7F7F"/>
                        <path d="M2.61574043,17.5589601 C1.59500697,18.3017495 0.410956165,20.1368764 0.206809474,21.4476813 C2.73822844,19.6999414 8.4543358,17.2531056 9.72004528,12.7526754 C8.29101844,13.7139323 6.69867425,14.8062698 5.35130609,15.6801397 C4.12642594,16.5103161 3.02403381,17.2531056 2.61574043,17.5589601 Z" id="Path" fill="#7F7F7F"/>
                        <path d="M13.4873269,4.76431119 C12.0158661,5.86475851 4.44835355,10.5204971 2.97689277,11.6632694 C1.54747374,12.7637167 0.328263379,14.5836872 0.244179906,16.2343582 C0.160096434,17.8850292 0.244179906,22.4137931 0.244179906,22.4137931 C0.244179906,20.8900968 1.71564068,18.7315271 2.97689277,17.8427043 C4.2801866,16.9115565 11.6795322,12.5097673 13.4873269,10.9437461 C15.2951215,9.37772493 16.0518728,7.85402865 16.2200397,6.37265727 C16.5563736,3.66386388 16.2620815,2.39411698 16.2200397,0.193222354 C16.0518728,1.71691863 14.9587877,3.62153898 13.4873269,4.76431119 Z" id="Path" fill="#D5D4D4"/>
                    </g>
                </g>
            </g>
        </g>
    </g>
</svg>